<svg width="139" height="21" viewBox="0 0 139 21" fill="none" xmlns="http://www.w3.org/2000/svg">
<rect width="22" height="21" rx="10.5" fill="#4C4C4C"/>
<path d="M14.4311 11.9663C14.7197 11.6909 14.7609 11.2973 14.5136 10.9038C14.3074 10.5889 13.9364 10.4315 13.5241 10.5102C13.3592 10.5496 13.1942 10.6283 13.0293 10.7463C11.7512 11.5728 10.0196 11.5334 8.74155 10.707C8.6591 10.6676 8.57664 10.6283 8.49418 10.5889C8.04067 10.3922 7.58716 10.4709 7.33979 10.8644C7.05119 11.258 7.09241 11.6909 7.46347 12.045C7.54592 12.1238 7.62838 12.1631 7.66961 12.2418L7.71084 12.2812C8.28804 12.7141 8.98893 12.9896 9.89596 13.1076L9.35998 13.6192C8.90647 14.0521 8.41173 14.5244 7.95821 14.9573C7.83453 15.0753 7.66961 15.2721 7.66961 15.5476C7.66961 15.9018 7.87576 16.256 8.24681 16.4134C8.3705 16.4921 8.49418 16.4921 8.61787 16.4921C8.82401 16.4921 9.07138 16.4134 9.2363 16.2166C9.85472 15.6263 10.3495 15.1541 10.8442 14.6818C10.8854 14.6424 10.8854 14.6424 10.8854 14.6424C10.8854 14.6424 10.9267 14.6424 10.9267 14.6818C11.2565 15.036 11.6276 15.3508 11.9574 15.705C12.1223 15.8624 12.2872 16.0199 12.4521 16.1773C12.6583 16.374 12.8232 16.4528 13.0706 16.4528C13.4416 16.4921 13.8539 16.256 14.0188 15.9018C14.1837 15.5869 14.1013 15.1934 13.8127 14.9573C13.4004 14.5637 12.9881 14.1308 12.5346 13.7373L11.8337 13.0683C12.2048 13.0289 12.617 12.9502 12.9881 12.7928C13.6065 12.596 14.06 12.3205 14.4311 11.9663Z" fill="white"/>
<path d="M10.8854 10.8644C12.6583 10.8644 14.1013 9.52635 14.1013 7.8341C14.1013 7.00766 13.7714 6.22057 13.153 5.63025C12.5346 5.03994 11.7512 4.7251 10.9267 4.7251C9.15384 4.7251 7.75207 6.1025 7.71084 7.75539C7.71084 8.58184 8.04067 9.32958 8.6591 9.91989C9.2363 10.5496 10.0196 10.8644 10.8854 10.8644ZM9.97841 6.92895C10.2258 6.69283 10.5556 6.57476 10.8854 6.57476C11.6276 6.57476 12.1635 7.12572 12.1635 7.79475C12.1635 8.50313 11.5863 9.01474 10.8854 9.01474C10.1433 9.01474 9.60736 8.46378 9.60736 7.79475C9.60736 7.47992 9.73104 7.16508 9.97841 6.92895Z" fill="white"/>
<path d="M14.4311 11.9663C14.7197 11.6909 14.7609 11.2973 14.5136 10.9038C14.3074 10.5889 13.9364 10.4315 13.5241 10.5102C13.3592 10.5496 13.1942 10.6283 13.0293 10.7463C11.7512 11.5728 10.0196 11.5334 8.74155 10.707C8.6591 10.6676 8.57664 10.6283 8.49418 10.5889C8.04067 10.3922 7.58716 10.4709 7.33979 10.8644C7.05119 11.258 7.09241 11.6909 7.46347 12.045C7.54592 12.1238 7.62838 12.1631 7.66961 12.2418L7.71084 12.2812C8.28804 12.7141 8.98893 12.9896 9.89596 13.1076L9.35998 13.6192C8.90647 14.0521 8.41173 14.5244 7.95821 14.9573C7.83453 15.0753 7.66961 15.2721 7.66961 15.5476C7.66961 15.9018 7.87576 16.256 8.24681 16.4134C8.3705 16.4921 8.49418 16.4921 8.61787 16.4921C8.82401 16.4921 9.07138 16.4134 9.2363 16.2166C9.85472 15.6263 10.3495 15.1541 10.8442 14.6818C10.8854 14.6424 10.8854 14.6424 10.8854 14.6424C10.8854 14.6424 10.9267 14.6424 10.9267 14.6818C11.2565 15.036 11.6276 15.3508 11.9574 15.705C12.1223 15.8624 12.2872 16.0199 12.4521 16.1773C12.6583 16.374 12.8232 16.4528 13.0706 16.4528C13.4416 16.4921 13.8539 16.256 14.0188 15.9018C14.1837 15.5869 14.1013 15.1934 13.8127 14.9573C13.4004 14.5637 12.9881 14.1308 12.5346 13.7373L11.8337 13.0683C12.2048 13.0289 12.617 12.9502 12.9881 12.7928C13.6065 12.596 14.06 12.3205 14.4311 11.9663Z" fill="white"/>
<rect x="30" width="21" height="21" rx="10.5" fill="#E5E5E5"/>
<path d="M41.0154 14.175C37.0692 14.175 34.8184 11.4159 34.7246 6.82495H36.7013C36.7662 10.1946 38.2235 11.6219 39.3778 11.9162V6.82495H41.2391V9.73111C42.3789 9.60603 43.5765 8.28171 43.9805 6.82495H45.8418C45.6895 7.58047 45.3861 8.29582 44.9504 8.92626C44.5146 9.55671 43.9561 10.0887 43.3096 10.4889C44.0312 10.8546 44.6686 11.3722 45.1797 12.0076C45.6908 12.643 46.064 13.3817 46.2746 14.175H44.2258C44.0367 13.4859 43.6524 12.8692 43.1211 12.4019C42.5898 11.9347 41.9351 11.6378 41.2391 11.5484V14.175H41.0154Z" fill="white"/>
<rect x="59" width="21" height="21" rx="10.5" fill="#E5E5E5"/>
<path d="M73.6996 6.61622L72.1218 14.8535C72.1218 14.8535 71.901 15.4246 71.2945 15.1507L67.654 12.2602L67.6371 12.2516C68.1289 11.7944 71.9421 8.24395 72.1088 8.08301C72.3668 7.83376 72.2066 7.68538 71.9071 7.87366L66.2744 11.5779L64.1014 10.8207C64.1014 10.8207 63.7594 10.6947 63.7265 10.4208C63.6932 10.1465 64.1126 9.99809 64.1126 9.99809L72.9715 6.39925C72.9715 6.39925 73.6996 6.06796 73.6996 6.61622Z" fill="white"/>
<rect x="88" width="22" height="21" rx="10.5" fill="#E5E5E5"/>
<path d="M103.36 6.33291C102.273 5.29932 100.824 4.7251 99.2951 4.7251C96.1159 4.7251 93.5402 7.1751 93.5402 10.1993C93.5402 11.1563 93.822 12.1134 94.3049 12.9173L93.5 15.7501L96.5585 14.9845C97.4037 15.4056 98.3293 15.6353 99.2951 15.6353C102.474 15.6353 105.05 13.1853 105.05 10.161C105.01 8.74463 104.446 7.3665 103.36 6.33291ZM102.072 12.1517C101.951 12.4579 101.388 12.7642 101.106 12.8024C100.865 12.8407 100.543 12.8407 100.221 12.7642C100.02 12.6876 99.7378 12.611 99.4159 12.4579C97.9671 11.8837 97.0415 10.5056 96.961 10.3907C96.8805 10.3142 96.3573 9.66338 96.3573 8.97432C96.3573 8.28525 96.7195 7.979 96.8402 7.82588C96.961 7.67275 97.122 7.67275 97.2427 7.67275C97.3232 7.67275 97.4439 7.67275 97.5244 7.67275C97.6049 7.67275 97.7256 7.63447 97.8463 7.90244C97.9671 8.17041 98.2488 8.85947 98.289 8.89775C98.3293 8.97432 98.3293 9.05088 98.289 9.12744C98.2488 9.204 98.2085 9.28057 98.128 9.35713C98.0476 9.43369 97.9671 9.54853 97.9268 9.58682C97.8463 9.66338 97.7659 9.73994 97.8463 9.85478C97.9268 10.0079 98.2085 10.429 98.6512 10.8118C99.2146 11.2712 99.6573 11.4243 99.8183 11.5009C99.9793 11.5774 100.06 11.5392 100.14 11.4626C100.221 11.386 100.502 11.0798 100.583 10.9267C100.663 10.7735 100.784 10.8118 100.905 10.8501C101.026 10.8884 101.75 11.2329 101.871 11.3095C102.032 11.386 102.112 11.4243 102.152 11.4626C102.193 11.5774 102.193 11.8454 102.072 12.1517Z" fill="white"/>
<rect x="118" width="21" height="21" rx="10.5" fill="#E5E5E5"/>
<path d="M131.783 5.0117C129.782 4.62956 127.704 4.62956 125.703 5.0117C124.818 5.20277 123.702 6.27276 123.51 7.11347C123.163 8.75667 123.163 10.4381 123.51 12.0813C123.741 12.922 124.857 13.992 125.703 14.1831C125.742 14.1831 125.78 14.2213 125.78 14.2595V16.667C125.78 16.7816 125.934 16.858 126.011 16.7434L127.166 15.5588C127.166 15.5588 128.089 14.6034 128.243 14.4505C128.243 14.4505 128.281 14.4123 128.32 14.4123C129.474 14.4506 130.667 14.3359 131.822 14.1448C132.707 13.9538 133.823 12.8838 134.015 12.0431C134.362 10.3999 134.362 8.71846 134.015 7.07526C133.784 6.27276 132.668 5.20277 131.783 5.0117ZM131.822 12.1959C131.629 12.5781 131.398 12.8838 131.014 13.0748C130.898 13.1131 130.783 13.1513 130.667 13.1895C130.513 13.1513 130.398 13.1131 130.283 13.0748C129.051 12.5781 127.897 11.8902 126.973 10.8967C126.473 10.3234 126.05 9.6738 125.703 8.98595C125.549 8.64203 125.395 8.33632 125.28 7.99239C125.164 7.68668 125.357 7.38097 125.549 7.15168C125.742 6.9224 125.973 6.76954 126.242 6.6549C126.434 6.54026 126.627 6.61669 126.781 6.76954C127.089 7.15168 127.396 7.53382 127.627 7.95418C127.781 8.22167 127.743 8.52739 127.473 8.71846C127.396 8.75667 127.358 8.79488 127.281 8.87131C127.242 8.90953 127.166 8.94774 127.127 9.02417C127.05 9.13881 127.05 9.25345 127.089 9.36809C127.396 10.247 127.974 10.9349 128.859 11.317C129.013 11.3934 129.128 11.4316 129.32 11.4316C129.59 11.3934 129.705 11.0877 129.898 10.9349C130.09 10.782 130.321 10.782 130.552 10.8967C130.744 11.0113 130.937 11.1641 131.168 11.317C131.36 11.4699 131.552 11.5845 131.745 11.7374C131.86 11.8138 131.899 12.0049 131.822 12.1959ZM130.206 9.32988C130.129 9.32988 130.167 9.32988 130.206 9.32988C130.052 9.32988 130.013 9.25345 129.975 9.13881C129.975 9.06238 129.975 8.94774 129.936 8.87131C129.898 8.71846 129.821 8.5656 129.667 8.45096C129.59 8.41274 129.513 8.37453 129.436 8.33632C129.32 8.2981 129.244 8.2981 129.128 8.2981C129.013 8.25989 128.974 8.18346 128.974 8.06882C128.974 7.99239 129.09 7.91596 129.167 7.91596C129.782 7.95418 130.244 8.2981 130.321 9.02417C130.321 9.06238 130.321 9.13881 130.321 9.17702C130.321 9.25345 130.283 9.32988 130.206 9.32988ZM129.821 7.64847C129.628 7.57204 129.436 7.49561 129.205 7.4574C129.128 7.4574 129.013 7.41918 128.936 7.41918C128.82 7.41918 128.743 7.34275 128.782 7.22811C128.782 7.11347 128.859 7.03704 128.974 7.07526C129.359 7.11347 129.705 7.1899 130.052 7.34275C130.744 7.68668 131.129 8.25989 131.245 9.02417C131.245 9.06238 131.245 9.1006 131.245 9.13881C131.245 9.21524 131.245 9.29166 131.245 9.40631C131.245 9.44452 131.245 9.48274 131.245 9.52095C131.206 9.67381 130.937 9.71202 130.898 9.52095C130.898 9.48274 130.86 9.40631 130.86 9.36809C130.86 9.02417 130.783 8.68024 130.629 8.37453C130.398 8.0306 130.129 7.80132 129.821 7.64847ZM131.899 9.9413C131.783 9.9413 131.706 9.82666 131.706 9.71202C131.706 9.48274 131.668 9.25345 131.629 9.02417C131.475 7.80132 130.475 6.80776 129.282 6.61669C129.09 6.57847 128.897 6.57847 128.743 6.54026C128.628 6.54026 128.474 6.54026 128.435 6.3874C128.397 6.27276 128.512 6.15812 128.628 6.15812C128.666 6.15812 128.705 6.15812 128.705 6.15812C128.782 6.15812 130.283 6.19633 128.705 6.15812C130.321 6.19633 131.668 7.26633 131.937 8.87131C131.976 9.13881 132.014 9.40631 132.014 9.71202C132.091 9.82666 132.014 9.9413 131.899 9.9413Z" fill="white"/>
</svg>
