<svg width="80" height="80" viewBox="0 0 80 80" fill="none" xmlns="http://www.w3.org/2000/svg">
<rect width="80" height="80" rx="10" fill="#454545"/>
<g clip-path="url(#clip0_160_1144)">
<path d="M39.9469 57.6457C53.1039 57.6457 63.7697 46.9798 63.7697 33.8228C63.7697 20.6658 53.1039 10 39.9469 10C26.7899 10 16.124 20.6658 16.124 33.8228C16.124 46.9798 26.7899 57.6457 39.9469 57.6457Z" fill="white"/>
<path d="M20.6477 47.7598L12.4508 61.9685L22.0177 61.4606L26.3642 70L33.9469 56.8543C28.5138 55.4488 23.8484 52.1772 20.6477 47.7598ZM59.2933 47.689C56.1162 52.1181 51.4508 55.4016 46.0295 56.8307L53.6358 70L57.9823 61.4606L67.5492 61.9685L59.2933 47.689Z" fill="white"/>
<path d="M39.9469 51.0906C49.4836 51.0906 57.2146 43.3596 57.2146 33.8229C57.2146 24.2862 49.4836 16.5552 39.9469 16.5552C30.4102 16.5552 22.6791 24.2862 22.6791 33.8229C22.6791 43.3596 30.4102 51.0906 39.9469 51.0906Z" fill="#454545"/>
<path d="M51.7815 31.9567C52.313 31.437 52.0178 30.5276 51.2855 30.4213L44.4705 29.4291C44.1752 29.3819 43.9272 29.2047 43.7973 28.9331L40.75 22.7559C40.4193 22.0827 39.4626 22.0827 39.1319 22.7559L36.0965 28.9331C35.9666 29.1929 35.7067 29.3819 35.4233 29.4291L28.6083 30.4213C27.876 30.5276 27.5808 31.437 28.1123 31.9567L33.0374 36.7638C33.25 36.9764 33.3445 37.2716 33.2973 37.5551L32.1398 44.3346C32.0099 45.0669 32.7894 45.6339 33.4508 45.2795L39.5453 42.0787C39.8052 41.937 40.1241 41.937 40.3839 42.0787L46.4784 45.2795C47.1398 45.622 47.9075 45.0669 47.7894 44.3346L46.6201 37.5551C46.5729 37.2598 46.6674 36.9646 46.88 36.7638L51.7815 31.9567Z" fill="white"/>
</g>
<defs>
<clipPath id="clip0_160_1144">
<rect width="60" height="60" fill="white" transform="translate(10 10)"/>
</clipPath>
</defs>
</svg>
