<svg width="60" height="60" viewBox="0 0 60 60" fill="none" xmlns="http://www.w3.org/2000/svg">
<g clip-path="url(#clip0_160_1169)">
<path d="M11.8348 41.8348C11.8348 51.8672 19.9676 60 30 60C40.0324 60 48.1652 51.8672 48.1652 41.8348C48.1652 31.8025 40.0324 23.6697 30 23.6697C19.9676 23.6697 11.8348 31.8025 11.8348 41.8348ZM28.2425 33.221V30.9356H31.7578V33.2288C34.2322 33.6364 36.126 35.7894 36.126 38.3775H32.6107C32.6107 37.4379 31.8464 36.6735 30.9067 36.6735H29.0499C28.1116 36.6735 27.348 37.4371 27.348 38.3754C27.348 39.3139 28.1116 40.0773 29.0499 40.0773H30.9502C33.827 40.0773 36.1674 42.4177 36.1674 45.2944C36.1674 47.8965 34.2524 50.0596 31.7577 50.4489V52.7343H28.2423V50.4535C25.7651 50.0791 23.8601 47.9358 23.8601 45.3557H27.3755C27.3755 46.2603 28.1115 46.9963 29.0161 46.9963H30.9502C31.8885 46.9963 32.6521 46.2327 32.6521 45.2944C32.6521 44.356 31.8885 43.5925 30.9502 43.5925H29.0499C26.1731 43.5925 23.8327 41.2521 23.8327 38.3753C23.8327 35.7734 25.7478 33.6104 28.2425 33.221ZM33.5372 20.4424C35.222 20.7185 36.8678 21.1942 38.44 21.8596C40.5019 22.7303 42.4156 23.9167 44.1125 25.3761V12.0062H47.6424V8.81747L38.8248 0L30.0073 8.81758V12.0063H33.5372V20.4424ZM15.8874 25.3761C17.5843 23.9167 19.498 22.7303 21.5598 21.8596C23.132 21.1942 24.7779 20.7184 26.4627 20.4424V17.6301H29.9926V14.4414L21.175 5.6238L12.3574 14.4414V17.6301H15.8874V25.3761Z" fill="white"/>
</g>
<defs>
<clipPath id="clip0_160_1169">
<rect width="60" height="60" fill="white"/>
</clipPath>
</defs>
</svg>
