<svg width="80" height="80" viewBox="0 0 80 80" fill="none" xmlns="http://www.w3.org/2000/svg">
<rect width="80" height="80" rx="10" fill="#454545"/>
<g clip-path="url(#clip0_160_1161)">
<path d="M31.8657 51.7031H22.7281V40.4062H16V63H38.5938V40.4062H31.8657V51.7031Z" fill="white"/>
<path d="M25.5405 40.4062H29.0532V48.8906H25.5405V40.4062ZM57.2719 51.7031H48.1343V40.4062H41.4062V63H64V40.4062H57.2719V51.7031Z" fill="white"/>
<path d="M50.9468 40.4062H54.4595V48.8906H50.9468V40.4062ZM57.2719 15V26.2969H48.1343V15H41.4062V37.5938H64V15H57.2719Z" fill="white"/>
<path d="M50.9468 15H54.4595V23.4844H50.9468V15ZM25.9272 26.8793V15.0875C20.3593 15.7819 16.0366 20.5439 16.0366 26.2969C16.0366 32.526 21.1044 37.5938 27.3335 37.5938C29.9423 37.5938 32.3471 36.7044 34.2615 35.2136L25.9272 26.8793Z" fill="white"/>
<path d="M30.7285 27.7031L36.2502 33.2248C37.469 31.6598 38.2855 29.7671 38.5429 27.7031H30.7285ZM28.7397 24.8906H38.543C37.906 19.7835 33.8468 15.7243 28.7397 15.0874V24.8906Z" fill="white"/>
</g>
<defs>
<clipPath id="clip0_160_1161">
<rect width="48" height="48" fill="white" transform="translate(16 15)"/>
</clipPath>
</defs>
</svg>
